<svg xmlns="http://www.w3.org/2000/svg" xmlns:xlink="http://www.w3.org/1999/xlink" width="756.905" height="1065" xmlns:v="https://vecta.io/nano"><circle fill="#ff5001" cx="375" cy="373" r="368"/><path d="M239.333 894.667c-3-98.334-107.333-95.333-107.333-95.333H6v258.667h72.667v-68.334h51s67.967 2.07 96.159-45.174c7.583-12.708 14.143-28.983 13.507-49.826zm-113 38.334H78.667v-77H126s40 0 40 38.501-39.667 38.499-39.667 38.499zm308 125h85L407.055 912.429 513 799.324h-80.333L332.333 908.002V799.324H260v258.677h72.333v-65.802l27.569-29.431zm119.334-77l-23.334 54s39.334 27.866 108.334 27.866 111.666-30.199 115.666-81.866c0 0 3.668-39.668-36.666-61.334-12.18-6.543-27.368-11.653-42.574-15.059-35.149-7.87-70.389-10.969-68.76-32.607 2.334-31 72-26.668 113.667-2.334l22.667-52.666s-38-27-106-23c-70.136 4.126-103.001 40.666-102.334 87.666 0 0-2.666 46.334 53.667 63.667s96.333 16.999 94.333 42.333-75.666 26.668-128.666-6.666z" fill="#1d1d1b"/><g fill="#fff"><path d="M154.937 225.5c-11.507 0-22.914 1.148-34.058 3.312 70.654 14.554 116.955 75.436 116.955 147.438 0 71.712-51.082 129.385-118.81 143.452 11.4 2.156 23.094 3.298 34.913 3.298 83.063 0 151-64.045 151-146.75s-61.082-150.75-150-150.75zm439.771-.25c11.507 0 21.913 2.148 33.058 4.312C557.111 244.116 510.811 304.998 510.811 377c0 71.712 51.082 128.385 118.811 142.451-11.4 2.156-23.095 3.299-34.913 3.299-83.063 0-150-64.045-150-146.75s61.081-150.75 149.999-150.75zM375 261.75s-20.75-32.25 0-66.75c0 0 20.25 32 0 66.75zM371.25 287l-24.75-22.75s-14-10.417-11.75-37.25l25.75 25s8.833 8 10.333 20.75c.471 3.998.417 14.25.417 14.25z"/><use xlink:href="#B"/><use xlink:href="#B" y="36.883"/><path d="M371.25 397.65L346.5 374.9s-14-10.417-11.75-37.25l25.75 25s8.834 8 10.334 20.75c.47 3.998.416 14.25.416 14.25z"/><use xlink:href="#B" y="110.65"/><path d="M371.25 471.417l-24.75-22.75s-14-10.417-11.75-37.25l25.75 25s8.834 8 10.334 20.75c.47 3.999.416 14.25.416 14.25z"/><use xlink:href="#B" y="184.417"/><use xlink:href="#B" y="221.301"/><path d="M403.205 301.134s14-10.417 11.75-37.25l-25.75 25s-2.271 2.064-4.705 5.753v-13.193l18.705-17.193s14-10.417 11.75-37.25l-25.75 25s-10.752 11.25-10.752 22.5v285h6.047v-19.873l18.705-17.192s14-10.417 11.75-37.25l-25.75 25s-2.271 2.058-4.705 5.748v-13.188l18.705-17.193s14-10.417 11.75-37.25l-25.75 25s-2.271 2.059-4.705 5.747v-13.188l18.705-17.193s14-10.417 11.75-37.25l-25.75 25s-2.271 2.067-4.705 5.755v-13.195l18.705-17.193s14-10.417 11.75-37.25l-25.75 25s-2.271 2.066-4.705 5.754v-13.195l18.705-17.193s14-10.417 11.75-37.25l-25.75 25s-2.271 2.066-4.705 5.755V355.21l18.705-17.193s14-10.417 11.75-37.25l-25.75 25s-2.271 2.063-4.705 5.751v-13.191l18.705-17.193z"/></g><defs ><path id="B" d="M371.25 323.884l-24.75-22.75s-14-10.417-11.75-37.25l25.75 25s8.834 8 10.334 20.75c.47 3.998.416 14.25.416 14.25z"/></defs></svg>